# xmcd CD database file
#
# Track frame offsets:
#	150
#	14267
#	33367
#	47722
#	63787
#	77037
#	91952
#	107720
#	123617
#	135985
#	153732
#	167645
#	182500
#	195910
#
# Disc length: 2752 seconds
#
# Revision: 0
# Processed by: cddbd v1.5.1PL2 Copyright (c) Steve Scherf et al.
# Submitted via: CDex 1.51
#
DISCID=a90abe0e
DTITLE=Svare Forsland - Bone Stonin' Blues
DYEAR=1995
DGENRE=Blues
TTITLE0=Let the mermaids flirt with me
TTITLE1=Come in my kitchen
TTITLE2=Broke down engine Blues
TTITLE3=Travellin' Riverside Blues
TTITLE4=Louis Collins
TTITLE5=Tamp' em up solid
TTITLE6=Sitting on top of the world
TTITLE7=Avalon, my home town
TTITLE8=Candy Man
TTITLE9=Hesitation Blues
TTITLE10=Payday
TTITLE11=Death don't have no mercy
TTITLE12=Motherless Children
TTITLE13=My Creole Belle
EXTD=YEAR: 1995
EXTT0=
EXTT1=
EXTT2=
EXTT3=
EXTT4=
EXTT5=
EXTT6=
EXTT7=
EXTT8=
EXTT9=
EXTT10=
EXTT11=
EXTT12=
EXTT13=
PLAYORDER=
